<?xml version="1.0" standalone="no"?><!DOCTYPE svg PUBLIC "-//W3C//DTD SVG 1.1//EN" "http://www.w3.org/Graphics/SVG/1.1/DTD/svg11.dtd"><svg class="icon" width="200px" height="199.03px" viewBox="0 0 1029 1024" version="1.1" xmlns="http://www.w3.org/2000/svg"><path fill="#F38064" d="M880.756479 885.602647V520.338747c0-76.206137-62.191216-137.52142-138.397353-137.52142H498.849859c0-127.886162 30.657641-116.499038 111.243442-127.886162C691.555034 243.544041 773.8927 228.653187 773.8927 35.072079c-0.875933-19.270518-16.64272-34.161372-35.037304-35.037304-20.14645-0.875933-37.665102 14.890854-38.541035 35.037304C699.438428 165.586039 677.540113 172.593499 599.58211 183.104691c-81.461733 11.387124-174.31059 8.759326-174.31059 199.712636H138.841555c-76.206137 0-138.397353 61.315283-138.397353 137.52142v366.139833c0 76.206137 62.191216 137.52142 138.397353 137.52142h604.393504c76.206137-0.875933 137.52142-62.191216 137.52142-138.397353zM532.135299 520.338747h91.972924V611.435739H532.135299V520.338747z m137.52142 136.645488v91.096992H577.683795V656.984235h91.972924z m-138.397353 0v91.096992H438.410509V656.984235h92.848857zM392.862013 520.338747H484.834938V611.435739H392.862013V520.338747z m-138.397353 0h91.972925V611.435739H254.46466V520.338747z m138.397353 136.645488v91.096992H300.889089V656.984235h91.972924zM116.067307 520.338747h91.972925V611.435739H116.067307V520.338747z m138.397353 136.645488v91.096992H162.491736V656.984235h91.972924z m-46.424428 228.618412H116.067307V794.505655h91.972925v91.096992z m416.067991 0H254.46466V794.505655h369.643563v91.096992z m138.397353 0H669.656719V794.505655h91.972925v91.096992z m0-274.166908H669.656719V520.338747h91.972925V611.435739z m0 0"  /></svg>