<?xml version="1.0" standalone="no"?><!DOCTYPE svg PUBLIC "-//W3C//DTD SVG 1.1//EN" "http://www.w3.org/Graphics/SVG/1.1/DTD/svg11.dtd"><svg class="icon" width="200px" height="200.00px" viewBox="0 0 1024 1024" version="1.1" xmlns="http://www.w3.org/2000/svg"><path fill="#F38064" d="M825.6 108.8H198.4C124.5 108.8 64 169.3 64 243.2v403.2c0 73.9 60.5 134.4 134.4 134.4h291.2v89.6h-112c-12.4 0-22.4 10-22.4 22.4 0 12.4 10 22.4 22.4 22.4h268.8c12.4 0 22.4-10 22.4-22.4 0-12.4-10-22.4-22.4-22.4h-112v-89.6h291.2c73.9 0 134.4-60.5 134.4-134.4V243.2c0-73.9-60.5-134.4-134.4-134.4z m-627.2 44.8h627.2c49.4 0 89.6 40.2 89.6 89.6v358.4H108.8V243.2c0-49.4 40.2-89.6 89.6-89.6zM825.6 736H198.4c-49.4 0-89.6-40.2-89.6-89.6h806.4c0 49.4-40.2 89.6-89.6 89.6z" /></svg>